<svg width="435" height="216" viewBox="0 0 435 216" fill="none" xmlns="http://www.w3.org/2000/svg">
<path d="M187.436 0.0683594C189.779 0.0683594 192.27 2.11914 194.906 6.2207C185.238 40.498 179.33 59.834 177.182 64.2285C173.373 73.9941 168.588 85.127 162.826 97.627C160.482 103.389 159.311 106.514 159.311 107.002C160.482 108.662 163.412 110.469 168.1 112.422C168.1 112.91 170.834 114.033 176.303 115.791C176.303 117.354 177.133 118.135 178.793 118.135V119.6H180.551C183.188 121.064 184.506 122.432 184.506 123.701C184.115 124.287 183.92 124.482 183.92 124.287C184.604 124.287 186.068 125.117 188.314 126.777H193.441L208.09 123.115C209.262 123.896 210.238 124.287 211.02 124.287H211.752L211.459 124.434L211.312 124.141C211.312 122.285 215.561 120.43 224.057 118.574L225.229 119.014C225.229 117.744 228.061 116.768 233.725 116.084C234.408 116.377 234.652 116.523 234.457 116.523C234.457 116.133 236.557 115.4 240.756 114.326C241.83 109.639 243.1 107.295 244.564 107.295L246.322 107.734L245.883 108.467C246.176 108.564 245.639 108.613 244.271 108.613V104.951C245.639 102.998 246.322 102.168 246.322 102.461C245.932 102.461 245.736 101.484 245.736 99.5312C246.42 99.5312 246.762 99.5312 246.762 99.5312C246.469 98.8477 246.322 97.8223 246.322 96.4551C247.494 96.4551 248.959 93.5742 250.717 87.8125H250.277V87.666C251.449 86.3965 252.621 83.1738 253.793 77.998C254.281 77.998 254.525 77.168 254.525 75.5078H257.016L256.576 75.3613C256.576 76.0449 256.723 76.0938 257.016 75.5078C256.723 74.5312 256.576 73.7988 256.576 73.3105C257.26 71.9434 257.602 70.1367 257.602 67.8906L258.627 68.4766C258.627 68.5742 259.066 68.1348 259.945 67.1582C259.945 67.0605 259.652 67.0117 259.066 67.0117C259.066 65.2539 261.117 60.3223 265.219 52.2168C265.219 49.3848 265.365 47.8223 265.658 47.5293C266.049 47.5293 266.244 46.748 266.244 45.1855L268.441 44.0137C269.32 44.502 269.467 44.7461 268.881 44.7461V45.332C268.881 40.5469 269.516 37.373 270.785 35.8105L270.346 33.4668C272.885 27.6074 274.496 24.4336 275.18 23.9453L275.033 23.5059C278.158 9.93164 281.674 3.14453 285.58 3.14453C289.291 3.73047 291.146 5.68359 291.146 9.00391V10.1758C286.947 22.9687 283.529 32.002 280.893 37.2754L281.479 41.084C279.428 43.916 277.182 49.4336 274.74 57.6367C263.705 85.4688 256.967 103.096 254.525 110.518C254.428 110.42 254.428 110.371 254.525 110.371C259.115 108.711 262.631 107.686 265.072 107.295C269.662 106.221 273.422 104.854 276.352 103.193C279.379 103.584 280.893 103.73 280.893 103.633L287.338 101.143L288.803 101.289C288.803 100.215 292.904 98.6035 301.107 96.4551H304.916C306.186 95.0879 307.797 94.4043 309.75 94.4043C310.434 94.7949 310.775 94.9902 310.775 94.9902C320.541 90.6934 326.889 88.4473 329.818 88.252C330.502 86.8848 332.846 86.2012 336.85 86.2012C336.85 87.373 337.191 88.7402 337.875 90.3027C337.484 93.916 327.133 98.6523 306.82 104.512C303.109 106.074 293.783 108.955 278.842 113.154L277.377 114.619L276.059 113.887C258.09 118.867 249.105 122.09 249.105 123.555C241.879 147.09 237.777 158.857 236.801 158.857C236.801 159.541 234.408 167.695 229.623 183.32C227.963 187.715 225.912 197.334 223.471 212.178C223.471 213.838 220.932 215.059 215.854 215.84H214.828C212.191 214.375 210.873 212.422 210.873 209.98V207.49L212.338 193.281C212.045 192.793 211.898 192.061 211.898 191.084V186.396C211.898 185.518 211.215 182.588 209.848 177.607C210.141 176.826 210.287 176.387 210.287 176.289C207.455 167.207 204.77 160.371 202.23 155.781C198.91 149.336 196.127 145.234 193.881 143.477C193.881 142.109 192.66 140.596 190.219 138.936H189.633L163.998 144.502C148.959 146.748 141.439 148.506 141.439 149.775C137.924 156.611 133.236 167.256 127.377 181.709C120.541 195.576 116.293 202.51 114.633 202.51C112.777 202.51 111.85 201.924 111.85 200.752C111.85 200.166 111.557 199.873 110.971 199.873C112.826 194.502 113.656 191.816 113.461 191.816V189.912H115.512V189.473C115.512 187.91 116.195 186.543 117.562 185.371V186.543H118.441C117.758 186.934 116.781 187.129 115.512 187.129V185.371C115.512 183.711 116.342 182.832 118.002 182.734V183.32L116.098 180.537C118.051 179.268 119.027 178.047 119.027 176.875C118.734 176.875 118.588 175.898 118.588 173.945H120.639V174.971L119.467 173.213C120.053 171.748 120.736 169.648 121.518 166.914L123.568 167.793H122.689V169.111H121.078V167.207C122.641 164.668 123.715 162.227 124.301 159.883C125.473 159.395 125.961 159.15 125.766 159.15V154.463C126.547 154.463 127.377 153.73 128.256 152.266V152.412L127.23 149.922C128.598 149.922 129.281 149.971 129.281 150.068V150.654H129.574L85.4824 156.807H84.6035L82.4062 156.367C81.332 156.953 72.6895 157.783 56.4785 158.857C55.6973 158.564 55.209 158.418 55.0137 158.418L51.498 158.857C51.1074 158.857 50.0332 158.711 48.2754 158.418C48.1777 158.418 47.7871 158.564 47.1035 158.857C30.0137 158.857 15.6094 154.121 3.89062 144.648C1.64453 141.328 0.521484 138.496 0.521484 136.152V135.713C0.521484 132.588 3.35352 128.926 9.01758 124.727H11.0684V126.338H10.9219C10.7266 126.338 11.0684 125.117 11.9473 122.676C13.6074 121.309 15.5117 120.625 17.6602 120.625H17.9531C17.9531 118.672 21.0293 116.914 27.1816 115.352C27.1816 114.766 27.8164 114.473 29.0859 114.473C30.9414 114.863 32.1133 115.059 32.6016 115.059C34.6523 113.301 37.3379 112.129 40.6582 111.543C42.5137 109.785 44.6133 108.906 46.957 108.906L48.7148 109.346C49.7891 108.662 50.8633 108.32 51.9375 108.32H52.8164C52.8164 106.758 54.8672 105.781 58.9688 105.391C58.9688 104.902 59.7012 104.658 61.166 104.658L62.4844 105.537C64.4375 105.146 65.9023 104.512 66.8789 103.633H69.8086C69.8086 102.949 71.3223 102.607 74.3496 102.607L75.2285 103.047C76.6934 102.461 77.8652 102.168 78.7441 102.168L81.3809 102.607C82.5527 102.607 84.0664 101.777 85.9219 100.117H87.9727C87.9727 101.094 87.8262 101.582 87.5332 101.582L88.7051 101.143L90.7559 101.436C90.7559 101.143 92.5137 100.703 96.0293 100.117L98.8125 100.557H100.57C105.062 99.9707 107.309 99.1406 107.309 98.0664C108.871 98.0664 112.289 98.7988 117.562 100.264C117.562 100.264 118.344 99.873 119.906 99.0918H122.25C124.789 99.0918 126.986 99.9219 128.842 101.582H128.549C129.818 100.605 131.381 100.117 133.236 100.117C133.236 100.898 133.383 101.387 133.676 101.582L136.898 101.143L139.096 102.607H138.803L140.268 101.582H141.879C142.758 102.656 144.32 103.34 146.566 103.633C147.348 103.633 148.324 101.533 149.496 97.334C151.742 96.5527 152.865 96.3086 152.865 96.6016L151.4 94.5508C151.4 93.2812 152.914 91.7188 155.941 89.8633V86.9336C155.941 86.543 156.283 85.127 156.967 82.6855V80.3418C158.236 79.9512 159.262 77.9004 160.043 74.1895L162.533 69.6484C162.24 69.1602 162.094 68.0371 162.094 66.2793C163.656 66.2793 164.584 64.5703 164.877 61.1523C165.854 61.1523 166.732 59.4434 167.514 56.0254H168.246V53.0957L170.736 49.873C170.639 49.6777 170.199 49.5801 169.418 49.5801L179.672 17.3535H179.086C181.039 11.7871 182.455 6.70898 183.334 2.11914C184.799 2.11914 186.166 1.43555 187.436 0.0683594ZM174.691 49.1406V47.8223H172.934V49.1406H174.691ZM82.4062 108.613L81.5273 108.027C58.5781 113.105 40.3652 118.916 26.8887 125.459C18.3926 130.635 14.1445 134.297 14.1445 136.445C18.832 143.574 29.7207 147.383 46.8105 147.871H57.6504C58.2363 147.871 58.9199 147.627 59.7012 147.139C60.5801 147.627 61.0684 147.871 61.166 147.871C62.6309 147.871 71.4688 146.992 87.6797 145.234C88.3633 145.625 88.7051 145.82 88.7051 145.82C107.455 143.086 119.271 141.133 124.154 139.961C124.74 140.449 125.082 140.693 125.18 140.693C131.625 139.131 134.799 138.398 134.701 138.496L134.262 137.91L134.848 135.859L134.262 134.834C135.629 130.83 136.947 128.828 138.217 128.828H138.51V129.561C138.51 128.975 138.363 128.389 138.07 127.803C138.07 123.018 139.779 120.625 143.197 120.625V121.943C141.83 121.943 141.146 121.211 141.146 119.746C141.146 118.672 142.514 115.84 145.248 111.25V110.518C145.248 110.322 142.953 109.59 138.363 108.32V109.346L133.822 107.002H130.453C125.766 107.002 123.129 106.611 122.543 105.83L122.104 105.977H106.869C105.404 105.977 103.549 105.83 101.303 105.537C98.959 106.221 92.6602 107.246 82.4062 108.613ZM155.941 114.473C155.355 114.961 152.23 122.432 146.566 136.885V136.445C156.43 135.273 162.143 134.004 163.705 132.637L165.17 133.516H166.781C177.23 130.781 182.504 129.414 182.602 129.414V130.586C173.52 122.48 164.633 117.109 155.941 114.473ZM214.389 132.197L212.777 131.904C211.508 132.783 208.383 133.711 203.402 134.688C203.402 134.688 202.523 135.127 200.766 136.006C199.887 135.518 199.398 135.273 199.301 135.273C198.617 135.566 198.275 135.713 198.275 135.713V136.299C203.061 142.256 205.453 145.576 205.453 146.26C207.602 146.357 209.848 149.629 212.191 156.074C212.191 158.32 213.168 159.785 215.121 160.469C217.758 169.844 218.881 174.531 218.49 174.531C220.736 170.039 222.152 167.793 222.738 167.793C222.738 168.477 222.543 167.891 222.152 166.035C222.152 164.57 224.398 157.832 228.891 145.82C228.891 144.258 229.916 142.451 231.967 140.4V140.107L230.502 137.617H232.113C232.309 137.91 232.406 137.764 232.406 137.178C232.406 136.592 233.188 135.371 234.75 133.516C234.555 133.125 234.457 132.1 234.457 130.439C235.141 130.439 235.922 128.535 236.801 124.727C237.289 124.727 237.533 124.775 237.533 124.873V125.312L236.215 125.02C228.012 127.07 222.885 128.926 220.834 130.586C218.295 131.66 216.146 132.197 214.389 132.197ZM200.033 144.062C199.936 143.184 199.447 142.744 198.568 142.744V144.062H200.033ZM233.725 145.088V143.77H232.406V145.088H233.725ZM226.986 168.525L227.426 167.5L226.4 166.914L225.961 167.939L226.986 168.525ZM367.904 33.3203C372.006 34.1016 374.154 34.4922 374.35 34.4922V36.25C372.982 40.6445 366.537 46.6992 355.014 54.4141C349.252 57.9297 344.955 59.6875 342.123 59.6875C338.217 59.1992 336.264 57.2461 336.264 53.8281C336.264 50.8984 342.514 46.4062 355.014 40.3516C358.139 38.0078 362.436 35.6641 367.904 33.3203ZM335.678 81.3672H336.85C338.998 81.3672 340.561 82.3438 341.537 84.2969V86.0547C334.896 98.5547 331.576 108.711 331.576 116.523V122.969C331.576 125.996 332.748 128.145 335.092 129.414H339.779C344.955 129.414 354.135 123.555 367.318 111.836C368.49 111.836 369.662 110.664 370.834 108.32C371.42 108.32 376.693 102.852 386.654 91.9141C387.24 91.9141 387.826 90.7422 388.412 88.3984C390.756 86.8359 392.514 86.0547 393.686 86.0547H394.271C395.053 86.1523 395.443 86.543 395.443 87.2266C392.123 97.6758 385.482 108.613 375.521 120.039C363.9 131.172 353.939 137.812 345.639 139.961L339.779 141.133C326.107 139.57 319.271 132.93 319.271 121.211C318.783 121.211 318.393 120.039 318.1 117.695C321.029 102.266 325.326 91.9141 330.99 86.6406L335.678 81.3672ZM426.059 3.4375H429.428C432.65 5.19531 434.262 7.14844 434.262 9.29688C431.039 29.3164 428.061 42.3535 425.326 48.4082C425.619 48.8965 425.766 49.4824 425.766 50.166C418.93 75.6543 414.389 89.5215 412.143 91.7676C411.459 91.7676 410.678 93.623 409.799 97.334V100.264C408.529 100.264 407.553 101.875 406.869 105.098H405.111C403.451 105.098 402.621 104.268 402.621 102.607V100.996C403.793 99.6289 404.672 96.9434 405.258 92.9395V84.1504C407.504 84.1504 409.311 77.2168 410.678 63.3496C412.143 63.3496 413.07 63.0078 413.461 62.3242L412.729 61.0059V58.5156C413.803 57.1484 414.34 55.8789 414.34 54.707H413.168C418.93 37.3242 421.811 21.748 421.811 7.97852C422.201 6.2207 423.617 4.70703 426.059 3.4375ZM404.086 103.779H407.162V105.684C407.162 106.562 406.088 109.199 403.939 113.594H402.475C400.814 113.594 399.984 112.715 399.984 110.957C400.766 106.172 402.133 103.779 404.086 103.779ZM395.443 130.732H396.469C400.277 130.732 402.572 133.174 403.354 138.057C401.986 142.158 399.545 144.209 396.029 144.209C391.928 144.209 388.9 141.963 386.947 137.471C388.705 132.979 391.537 130.732 395.443 130.732Z" fill="#FFA692"/>
</svg>
