<svg width="40" height="40" viewBox="0 0 40 40" fill="none" xmlns="http://www.w3.org/2000/svg">
<circle cx="20" cy="20" r="20" fill="black"/>
<path d="M25.874 24.6413C26.0889 24.8463 26.1963 25.0563 26.1963 25.2711C26.1963 25.5641 26.04 25.7106 25.7275 25.7106C25.5615 25.7106 25.3662 25.6129 25.1416 25.4176L20 20.7301L14.8584 25.4176C14.7314 25.5251 14.6191 25.6032 14.5215 25.652C14.4336 25.6911 14.3408 25.7106 14.2432 25.7106C13.9404 25.7106 13.7891 25.5592 13.7891 25.2565C13.7891 25.0612 13.9014 24.8561 14.126 24.6413L19.209 19.9977L14.0674 15.442C13.8721 15.276 13.7744 15.0954 13.7744 14.9001C13.7744 14.7731 13.8184 14.6657 13.9062 14.5778C14.0039 14.4899 14.1211 14.446 14.2578 14.446C14.4531 14.446 14.6533 14.5338 14.8584 14.7096L20 19.2799L25.1416 14.7096C25.3271 14.5338 25.5225 14.446 25.7275 14.446C25.8643 14.446 25.9766 14.4899 26.0645 14.5778C26.1621 14.6559 26.2109 14.7633 26.2109 14.9001C26.2109 15.0856 26.1182 15.2663 25.9326 15.442L20.791 19.9977L25.874 24.6413Z" fill="white"/>
<path d="M25.874 24.6413L26.133 24.3699L26.127 24.3644L25.874 24.6413ZM25.1416 25.4176L24.8889 25.6948L24.8955 25.7006L25.1416 25.4176ZM20 20.7301L20.2526 20.453L20 20.2227L19.7474 20.453L20 20.7301ZM14.8584 25.4176L15.1008 25.7041L15.111 25.6948L14.8584 25.4176ZM14.5215 25.652L14.6738 25.9947L14.6816 25.9912L14.6892 25.9874L14.5215 25.652ZM14.126 24.6413L13.873 24.3643L13.8668 24.3703L14.126 24.6413ZM19.209 19.9977L19.4619 20.2746L19.7696 19.9935L19.4577 19.717L19.209 19.9977ZM14.0674 15.442L14.3161 15.1613L14.3103 15.1563L14.0674 15.442ZM13.9062 14.5778L13.6554 14.2991L13.6481 14.3057L13.6411 14.3126L13.9062 14.5778ZM14.8584 14.7096L15.1076 14.4293L15.1024 14.4249L14.8584 14.7096ZM20 19.2799L19.7509 19.5602L20 19.7817L20.2491 19.5602L20 19.2799ZM25.1416 14.7096L25.3909 14.99L25.3995 14.9819L25.1416 14.7096ZM26.0645 14.5778L25.7993 14.843L25.814 14.8576L25.8302 14.8706L26.0645 14.5778ZM25.9326 15.442L26.1814 15.7229L26.1905 15.7143L25.9326 15.442ZM20.791 19.9977L20.5423 19.717L20.2304 19.9935L20.5381 20.2746L20.791 19.9977ZM25.6151 24.9125C25.7849 25.0746 25.8213 25.1931 25.8213 25.2711H26.5713C26.5713 24.9195 26.3928 24.618 26.133 24.37L25.6151 24.9125ZM25.8213 25.2711C25.8213 25.3121 25.8157 25.332 25.8137 25.3378C25.8123 25.3415 25.8143 25.335 25.8226 25.3272C25.8402 25.3107 25.8318 25.3356 25.7275 25.3356V26.0856C25.9358 26.0856 26.1618 26.0373 26.3356 25.8743C26.5139 25.7071 26.5713 25.4819 26.5713 25.2711H25.8213ZM25.7275 25.3356C25.7003 25.3356 25.5926 25.3128 25.3877 25.1347L24.8955 25.7006C25.1398 25.913 25.4227 26.0856 25.7275 26.0856V25.3356ZM25.3942 25.1405L20.2526 20.453L19.7474 21.0073L24.889 25.6948L25.3942 25.1405ZM19.7474 20.453L14.6058 25.1405L15.111 25.6948L20.2526 21.0073L19.7474 20.453ZM14.6162 25.1314C14.5015 25.2284 14.4147 25.2861 14.3538 25.3166L14.6892 25.9874C14.8236 25.9202 14.9614 25.8217 15.1006 25.7039L14.6162 25.1314ZM14.3692 25.3093C14.33 25.3267 14.2892 25.3356 14.2432 25.3356V26.0856C14.3925 26.0856 14.5372 26.0554 14.6738 25.9947L14.3692 25.3093ZM14.2432 25.3356C14.1496 25.3356 14.1483 25.3125 14.1678 25.3319C14.1872 25.3514 14.1641 25.3501 14.1641 25.2565H13.4141C13.4141 25.4657 13.4666 25.6914 13.6374 25.8622C13.8082 26.0331 14.034 26.0856 14.2432 26.0856V25.3356ZM14.1641 25.2565C14.1641 25.2103 14.1921 25.097 14.3852 24.9123L13.8668 24.3703C13.6107 24.6152 13.4141 24.9121 13.4141 25.2565H14.1641ZM14.3789 24.9181L19.4619 20.2746L18.9561 19.7208L13.873 24.3644L14.3789 24.9181ZM19.4577 19.717L14.3161 15.1614L13.8187 15.7227L18.9603 20.2784L19.4577 19.717ZM14.3103 15.1563C14.1708 15.0378 14.1494 14.9533 14.1494 14.9001H13.3994C13.3994 15.2374 13.5733 15.5143 13.8245 15.7278L14.3103 15.1563ZM14.1494 14.9001C14.1494 14.8702 14.1555 14.8589 14.1714 14.843L13.6411 14.3126C13.4812 14.4725 13.3994 14.676 13.3994 14.9001H14.1494ZM14.1571 14.8565C14.1829 14.8333 14.2096 14.821 14.2578 14.821V14.071C14.0326 14.071 13.8249 14.1465 13.6554 14.2991L14.1571 14.8565ZM14.2578 14.821C14.3345 14.821 14.4513 14.8546 14.6144 14.9943L15.1024 14.4249C14.8553 14.2131 14.5717 14.071 14.2578 14.071V14.821ZM14.6093 14.9899L19.7509 19.5602L20.2491 18.9997L15.1075 14.4293L14.6093 14.9899ZM20.2491 19.5602L25.3907 14.9899L24.8925 14.4293L19.7509 18.9997L20.2491 19.5602ZM25.3995 14.9819C25.5334 14.855 25.6406 14.821 25.7275 14.821V14.071C25.4043 14.071 25.1209 14.2127 24.8837 14.4374L25.3995 14.9819ZM25.7275 14.821C25.7757 14.821 25.7891 14.8328 25.7993 14.843L26.3296 14.3126C26.164 14.147 25.9528 14.071 25.7275 14.071V14.821ZM25.8302 14.8706C25.8336 14.8734 25.8346 14.8747 25.8342 14.8742C25.8338 14.8737 25.8333 14.8729 25.8329 14.8721C25.8319 14.87 25.8359 14.8768 25.8359 14.9001H26.5859C26.5859 14.6616 26.4944 14.4415 26.2987 14.285L25.8302 14.8706ZM25.8359 14.9001C25.8359 14.9485 25.8146 15.0373 25.6747 15.1698L26.1905 15.7143C26.4218 15.4952 26.5859 15.2227 26.5859 14.9001H25.8359ZM25.6839 15.1614L20.5423 19.717L21.0397 20.2784L26.1813 15.7227L25.6839 15.1614ZM20.5381 20.2746L25.6211 24.9181L26.127 24.3644L21.0439 19.7208L20.5381 20.2746Z" fill="white"/>
</svg>
