<svg width="40" height="39" viewBox="0 0 40 39" fill="none" xmlns="http://www.w3.org/2000/svg">
<path d="M31.9639 25.7172L32.2829 25.7975C32.197 25.7543 32.0764 25.7316 31.9639 25.7172Z" fill="black" stroke="black" stroke-width="0.25"/>
<path d="M31.874 25.6946C31.874 25.6946 31.8938 25.7015 31.9204 25.7104C31.9347 25.7118 31.9497 25.7152 31.964 25.7172L31.874 25.6946Z" fill="black" stroke="black" stroke-width="0.25"/>
<path d="M38.5062 24.6663C38.4823 24.2527 38.4953 23.7993 38.2901 23.4337C38.2546 23.3706 37.4958 22.5694 37.4964 22.6805C37.4876 21.7064 37.4058 20.7063 37.2946 19.6238C36.9878 15.4052 36.4765 9.95179 33.1016 6.96786C32.5234 6.45888 31.8927 6.10287 31.2485 5.72079C31.1435 5.61515 30.9512 5.42171 30.8516 5.32156C30.6471 5.32156 30.4426 5.21866 30.4426 5.21866C28.7285 4.27821 27.0738 3.39881 25.2977 2.76018C25.188 2.3973 24.9896 2.1236 24.6132 2.02894C24.5109 1.92605 24.1019 1.92605 23.9996 1.92605C23.6928 1.82315 23.386 1.82315 23.0792 1.72026C22.4655 1.61736 21.3406 1.30868 21.3406 1.30868C21.2383 1.30868 21.136 1.30868 21.0338 1.30868L20.8292 1.20579C20.5224 1.20579 20.1133 1.10289 20.1133 1.10289H20.4202C19.8065 1.10289 19.2952 1 18.6816 1C18.477 1 17.9657 1.30868 17.9657 1.30868C17.1762 1.30868 16.4466 1.43421 15.6858 1.67979C15.5944 1.69351 15.4996 1.70654 15.4089 1.72026C12.8522 2.23473 10.1932 2.7492 8.04554 4.4984C6.71603 5.63024 5.69334 6.76207 4.67064 8.0997C4.05703 8.81996 3.34114 9.54022 2.93206 10.4663C2.52298 11.0836 2.31844 11.8039 2.01164 12.5241C1.70483 13.1415 1.29575 13.5531 1.09121 14.2734C0.98894 14.9936 1.09121 15.7139 1.09121 16.4341C0.989622 18.6772 0.889398 18.7012 1.28552 21.4046C1.21052 21.7647 1.13484 22.1667 1.19348 22.402C1.26848 22.5913 1.40006 22.7374 1.56029 22.8335C3.01797 28.9632 7.88327 33.4617 13.3131 36.2097C15.4267 37.2791 17.7448 37.7017 20.0874 37.8581C21.4688 37.9507 25.0298 38.3437 26.1472 37.2194C26.1609 37.2057 26.1793 37.1742 26.1957 37.1502C26.1397 37.2311 27.2272 37.3669 27.3874 37.2908C27.9547 37.0233 28.0351 36.4416 27.9608 35.8832C27.8354 34.9455 26.9756 33.9584 26.1104 33.6641C23.8353 32.8897 21.2969 33.7807 18.9734 32.666C16.0287 31.253 13.0172 29.8872 10.2955 28.0619C9.78412 27.3416 9.27277 26.7242 8.65916 26.2098C8.35235 25.9011 7.73873 25.3866 7.73873 25.3866C7.53419 24.975 7.02284 24.2548 7.02284 24.2548C6.61376 22.9171 6.20469 21.6824 5.89788 20.3448C5.79561 20.0361 5.4888 19.213 5.4888 19.213C5.4888 18.4927 5.38653 17.258 5.07972 16.5377C4.98427 16.2489 4.88541 15.8771 4.7061 15.6604C4.7995 15.4559 4.87518 15.303 4.87518 15.303C4.97745 14.7885 5.18199 14.3769 5.38653 13.9654L5.4888 13.7596C5.59107 13.5538 5.69334 13.348 5.69334 13.2451V13.0393C6.00015 12.6277 6.61377 11.5988 6.61377 11.5988C7.12511 11.2901 7.43192 10.7756 7.841 10.2612C9.62253 8.46943 11.2984 7.80679 13.5667 6.73189C15.0265 6.03976 16.6635 5.41004 18.2814 5.23855C19.5556 5.10342 20.8947 5.03757 22.1846 5.0993C25.447 5.25502 28.1599 6.73463 30.5407 8.96469C33.7984 12.0165 34.022 16.0479 34.022 20.2412C34.022 20.7557 34.1243 21.2702 34.2265 21.6817C34.2265 21.7846 34.2265 21.9904 34.2265 21.9904C34.3288 22.6078 34.3288 23.8425 34.3288 23.8425C34.3288 24.4283 34.2074 25.259 34.2722 25.9745C33.8986 25.9038 33.4868 25.9004 33.2038 25.9004C32.897 25.9004 32.3857 25.9004 32.3857 25.9004C32.2275 25.8208 32.0121 25.7426 31.9207 25.7104C31.7837 25.6953 31.6698 25.6946 31.6698 25.6946C31.2607 25.7975 30.6471 25.7975 30.6471 25.9004C30.6021 25.9004 30.5489 25.9031 30.493 25.9073C30.4255 25.1534 30.3083 24.5182 30.238 23.7396C30.1358 23.2251 30.238 22.5049 30.238 22.0933C30.238 21.8875 30.238 21.6817 30.238 21.6817C30.238 19.7267 30.3403 17.3602 30.238 15.3023C30.238 15.1994 30.1358 12.627 29.9312 11.8039C29.754 11.0013 29.1922 10.74 28.5138 10.5506L28.8063 10.5692C28.6263 10.539 28.419 10.5013 28.1851 10.4663C27.6656 10.3901 27.0881 10.3531 26.6586 10.5692C26.4541 10.6721 26.045 11.1865 26.045 11.1865C25.9427 11.3923 25.9427 11.9068 25.8404 11.9068L25.9427 12.1126C25.9427 12.3184 25.8404 12.5241 25.9427 12.7299C25.9427 12.8808 25.9973 13.0859 26.0266 13.1847C25.7068 12.7656 25.2984 12.3863 24.7155 12.0097C24.5109 11.9068 24.1019 11.8039 23.795 11.701C23.386 11.5981 22.5678 11.3923 22.5678 11.3923C22.261 11.1865 21.9542 11.0836 21.6474 10.9807C21.4428 10.8778 21.136 10.7749 21.136 10.7749C20.5626 10.5273 20.2456 10.3497 19.829 10.2344L20.0111 10.2605C19.9286 10.242 19.8461 10.2344 19.7636 10.2193C19.6784 10.1974 19.5972 10.174 19.4997 10.1576C19.1929 10.0547 18.5793 10.0547 18.5793 10.0547L19.135 10.1349C18.4982 10.0828 17.8471 10.1199 17.1475 10.2605C15.818 10.6721 14.4885 10.8778 13.3636 11.8039C11.9318 13.0386 11.8295 14.3762 11.4204 16.1254C11.1136 17.566 10.8068 18.5949 10.8068 20.1383C11.0114 23.0194 12.7499 25.283 14.7953 27.1351C15.3067 27.6496 15.7158 28.3699 16.4316 28.5756C16.8407 28.7814 17.1475 28.7814 17.5566 28.8843C17.6589 28.8843 17.8634 28.8843 17.8634 28.8843C19.4997 29.3988 21.4428 29.3988 22.9769 28.5756C23.5905 28.267 24.2041 27.9583 24.7155 27.4438C24.92 27.238 25.4314 26.7235 25.4314 26.6207C25.8752 26.2633 26.5488 25.8284 26.8529 25.257C26.7827 26.7784 27.0527 28.9804 28.5806 29.6217C30.0478 30.237 31.903 29.8303 33.4343 29.7555C35.0931 29.6746 38.7421 30.344 38.9862 28.02C39.0843 27.0864 38.6316 25.8229 38.5246 24.8811C38.5157 24.8111 38.5103 24.7397 38.5062 24.6663ZM24.7148 19.2123C24.7148 19.4181 24.7148 19.9325 24.7148 20.0354C24.7148 20.447 24.6125 21.0644 24.6125 21.5788C24.7148 21.7846 24.7148 22.2991 24.7148 22.2991C24.8171 24.2541 23.5898 25.5917 21.9535 26.5178C21.4422 26.7235 20.8285 26.7235 20.3172 26.8264C19.8059 26.8264 18.8854 26.8264 18.8854 26.8264C17.2491 26.6207 16.2264 24.5628 15.6128 23.1222C15.4083 22.5049 15.1015 21.8875 14.8969 21.2702C14.7946 21.2702 14.7946 21.1673 14.7946 21.1673C14.8969 18.6978 15.306 16.7428 16.1242 14.3762C16.3287 13.8618 16.7378 13.3473 17.1468 13.1415C17.2491 13.0386 17.5559 12.8328 17.7605 12.7299C17.8627 12.7299 18.1695 12.627 18.1695 12.627C19.3968 12.627 20.2149 13.1415 21.3399 13.656C21.9535 13.9647 22.4649 14.1705 22.9762 14.6849C23.3853 15.0965 23.6921 15.5081 24.1012 15.9197C24.2034 16.1254 24.3057 16.3312 24.5103 16.537C24.5103 16.6399 24.6125 16.9486 24.7148 16.9486C24.7148 17.1544 24.8171 17.566 24.8171 17.6689C24.7148 18.1833 24.7148 18.6978 24.7148 19.2123ZM4.36315 24.6657C4.36315 24.6677 4.36452 24.6698 4.36452 24.6718C4.36384 24.6698 4.36315 24.6677 4.36247 24.6663L4.36315 24.6657ZM13.6697 35.5724C13.5674 35.5724 13.4651 35.4696 13.4651 35.4696C13.4604 35.3996 13.444 35.3413 13.427 35.283C13.8442 35.3955 14.2663 35.4819 14.6924 35.5498C14.6924 35.5553 14.6924 35.5718 14.6924 35.5718C14.2833 35.5724 14.0788 35.5724 13.6697 35.5724ZM8.35167 29.9133C8.45393 29.8104 8.45394 29.3988 8.45394 29.5017C8.76074 29.6046 8.96528 29.7075 9.27209 29.8104C9.37436 29.8104 9.5789 29.8104 9.5789 29.8104C10.2948 30.6335 11.8288 32.1769 11.8288 32.1769C11.9311 32.3827 12.1356 32.5885 12.4424 32.5885C12.647 32.5885 13.0561 32.3827 13.0561 32.3827C13.3629 32.4856 13.6697 32.6914 14.0788 32.7943C14.5901 33.0001 15.8173 33.4117 15.8173 33.4117C16.0314 33.5194 16.221 33.6072 16.4146 33.6991C15.9176 33.6751 15.5064 33.6243 14.6924 33.5146C13.5674 33.3088 12.8515 32.8972 11.8288 32.4856C10.53 31.8662 9.23459 31.1048 8.11917 30.1479C8.20849 30.082 8.29099 30.0052 8.35167 29.9133ZM8.24939 7.17365C7.99372 7.36709 7.74759 7.52555 7.51715 7.68881C7.79395 7.39933 8.08031 7.1222 8.37621 6.85742C8.43075 6.89104 8.48802 6.91573 8.54734 6.93082C8.37348 7.0735 8.24939 7.17365 8.24939 7.17365ZM14.181 5.11577C13.6697 5.21866 13.1583 5.32156 12.5447 5.42445C12.4424 5.52734 12.3402 5.52734 12.3402 5.52734C11.9311 5.32156 11.6243 5.32156 11.2152 5.42445C11.0864 5.48962 10.9207 5.5884 10.787 5.63161C10.9643 5.48001 11.1129 5.36271 11.2152 5.32156C12.1738 4.91958 13.1958 4.76661 14.2315 4.57249C14.2144 4.6157 14.1967 4.65686 14.181 4.70419C14.181 4.90998 14.181 5.11577 14.181 5.11577ZM17.1468 4.29261C17.0446 4.29261 16.7378 4.18972 16.7378 4.18972C16.6355 4.18972 16.431 4.18972 16.431 4.18972C16.3341 4.18972 16.1732 4.15816 15.9892 4.11907C16.1023 4.07585 16.2155 4.04087 16.3287 3.98393C16.5332 3.88104 16.9423 3.67525 16.9423 3.67525C17.1768 3.59636 17.4121 3.54697 17.6466 3.49827C17.6561 3.68622 17.7073 3.87692 17.7605 3.98393C17.8627 4.18972 18.0673 4.39551 18.0673 4.39551C17.7605 4.29261 17.2491 4.29261 17.1468 4.29261ZM26.7602 24.0483C26.7772 23.9968 26.7745 23.9324 26.7861 23.8761C26.7929 23.9756 26.799 24.0757 26.8065 24.1752C26.7547 24.1395 26.6947 24.1141 26.7602 24.0483Z" fill="black" stroke="black" stroke-width="0.25"/>
</svg>
