<svg width="47" height="29" viewBox="0 0 47 29" fill="none" xmlns="http://www.w3.org/2000/svg">
<path d="M34.0455 6.68459C34.7487 5.97939 35.4519 5.22381 36.1551 4.46823C36.5067 4.11562 36.8583 3.71265 37.1597 3.36004L37.6619 2.80595C37.7122 2.75558 37.7624 2.70521 37.8126 2.65484C37.7624 4.61934 37.7624 6.58385 37.7624 8.54836C37.7624 10.6136 37.8629 12.7292 37.9633 14.7945H38.0135L38.0638 8.54836C38.0638 6.48311 38.1642 4.36748 38.2145 2.30223V2.10074H38.0135C37.2601 2.15112 36.5569 2.25186 35.8035 2.25186C35.0501 2.30223 34.3469 2.30223 33.5935 2.30223C32.1368 2.30223 30.6802 2.30223 29.1734 2.25186C26.2602 2.15112 23.2967 2.05037 20.3333 2.15112L15.9634 2.25186C14.5068 2.25186 13 2.30223 11.5433 2.30223C10.0867 2.30223 8.57988 2.30223 7.12326 2.25186C5.66665 2.20149 4.21004 2.10074 2.70319 2H2.55251V2.15112C2.50228 6.38236 2.25114 10.664 2.25114 14.9456C2.25114 16.0034 2.25114 17.0612 2.25114 18.1694C2.30137 19.2272 2.30137 20.285 2.40182 21.3932C2.45205 21.9473 2.50228 22.451 2.50228 22.9547C2.50228 23.4585 2.50228 24.0126 2.45205 24.5163C2.40182 25.5237 2.25114 26.5815 2.05023 27.589L2 27.8912H2.30137C4.21004 27.9416 6.16893 27.9416 8.0776 27.9919C9.98626 27.9919 11.9452 28.0423 13.8538 27.8912C15.7625 27.7904 17.6712 27.6897 19.6301 27.6897C21.5387 27.6393 23.4976 27.6393 25.4063 27.589V27.5386C23.4976 27.4882 21.5387 27.4378 19.6301 27.4378C17.7214 27.4378 15.7625 27.4378 13.8538 27.5386C11.9452 27.6393 10.0365 27.589 8.0776 27.5386L2.60274 27.3875C2.65297 27.186 2.65297 27.0349 2.70319 26.8334C3.6073 26.2793 6.92235 24.1637 10.2374 22.048C11.1917 21.4436 12.1963 20.7887 13.1004 20.2347C13.5525 19.9324 14.0045 19.6302 14.4063 19.3783C14.8082 19.0761 15.21 18.8242 15.5616 18.5724C15.9132 18.3205 16.2145 18.0687 16.5159 17.8672C16.8173 17.6657 17.0684 17.4642 17.2191 17.3131C17.6209 17.0108 17.8218 16.8094 17.8218 16.8094L17.7716 16.759C17.7716 16.759 17.5205 16.9101 17.0684 17.162C16.8675 17.2627 16.5661 17.4138 16.2648 17.6153C15.9634 17.8168 15.6118 17.9679 15.2602 18.2198C14.9086 18.4716 14.5068 18.6731 14.0547 18.9754C13.6529 19.2272 13.2009 19.5294 12.7488 19.8317C11.8447 20.4361 10.8904 21.091 9.98627 21.7458C6.8219 23.9118 3.65753 26.0778 2.70319 26.783C2.80365 26.0274 2.90411 25.2719 3.00456 24.5163C3.05479 23.9622 3.05479 23.4585 3.05479 22.9044C3.05479 22.3503 3.00456 21.8466 2.95433 21.2925C2.80365 19.1768 2.75342 17.0612 2.75342 14.9456C2.75342 10.7144 2.90411 6.53348 2.90411 2.30223C3.00456 2.30223 3.05479 2.30223 3.15525 2.30223C3.75798 3.00744 4.41095 3.71265 5.06391 4.41785C5.76711 5.17343 6.42007 5.92901 7.12326 6.63422L9.23284 8.85059C9.93604 9.5558 10.6392 10.261 11.3927 11.0166C12.1461 11.7218 12.8493 12.3766 13.6027 13.0818L14.7579 14.0893C15.1598 14.4419 15.5114 14.7441 15.9132 15.0967C17.4703 16.4064 18.9771 17.7161 20.5342 19.0761L20.6346 19.1768L20.7351 19.0761C21.589 18.3205 22.4931 17.5649 23.3469 16.759C23.5981 17.0108 24.0501 17.4642 24.5524 17.9175C24.7031 18.0687 24.904 18.2701 25.0547 18.4213C25.2054 18.5724 25.4063 18.6731 25.557 18.7739C25.8583 18.925 26.1095 19.0257 26.1095 19.0257L26.1597 18.9754C26.1597 18.9754 26.0592 18.7235 25.8081 18.4716C25.7077 18.3205 25.557 18.1694 25.3561 18.0183C25.1551 17.8672 24.9542 17.7664 24.7533 17.6153C24.2008 17.2627 23.6985 16.9101 23.3972 16.7086C23.9999 16.1545 24.6529 15.6004 25.2556 15.0463L27.5159 13.0315C28.2693 12.3263 29.0227 11.6714 29.7259 10.9662C30.4793 10.261 31.2327 9.5558 31.9359 8.85059L34.0455 6.68459ZM29.3241 10.5632L24.8538 14.6937C23.3972 16.0538 21.9405 17.4138 20.4839 18.7739C18.9269 17.5146 17.42 16.2553 15.9132 14.996C14.4063 13.6359 12.9999 12.2255 11.5936 10.7647L7.32418 6.43273L5.16437 4.26674C4.5114 3.6119 3.85844 2.95707 3.20547 2.3526C5.96802 2.50372 8.78079 2.55409 11.5433 2.50372L15.9634 2.45335C17.42 2.45335 18.9269 2.45335 20.3835 2.45335C23.2967 2.45335 26.2602 2.65484 29.1734 2.75558L31.3834 2.80595C32.1368 2.80595 32.84 2.80595 33.5935 2.80595C34.3469 2.80595 35.0501 2.75558 35.8035 2.70521C36.4565 2.65484 37.1094 2.60446 37.7624 2.55409C37.7122 2.65483 37.6619 2.70521 37.5615 2.75558L37.0592 3.2593L35.9542 4.31711L33.7441 6.43273L29.3241 10.5632Z" fill="black" stroke="black" stroke-width="2"/>
<path d="M43.489 19.8821C42.7356 19.8317 41.8817 19.7309 40.9274 19.7309C39.9731 19.7309 39.0187 19.7813 38.0142 19.8317C36.005 19.8821 34.0461 19.9324 32.5393 20.0332C31.0325 20.0835 30.0781 20.1339 30.0781 20.1339V20.2347C30.0781 20.2347 31.0827 20.285 32.5393 20.3858C34.0461 20.4361 36.0553 20.5369 38.0644 20.6376C39.069 20.688 40.0735 20.7888 40.9776 20.7888C41.932 20.7888 42.7858 20.7384 43.5393 20.688C45.0461 20.5873 46.0004 20.3354 46.0004 20.3354V20.2347C46.0004 20.2347 44.9959 19.9828 43.489 19.8821Z" fill="black" stroke="black" stroke-width="2"/>
<path d="M40.0735 23.3073C39.521 23.257 38.868 23.2066 38.1648 23.2066C37.4617 23.2066 36.7585 23.3073 36.005 23.3577C34.5484 23.4585 33.0416 23.5088 31.9366 23.6096C30.8315 23.7103 30.0781 23.7607 30.0781 23.7607V23.8614C30.0781 23.8614 30.8315 23.9118 31.9366 23.9622C33.0416 24.0126 34.4982 24.1133 36.005 24.1637C36.7585 24.214 37.4617 24.2644 38.1648 24.2644C38.868 24.2644 39.521 24.214 40.0735 24.1133C41.1785 23.9622 41.932 23.7607 41.932 23.7607V23.6599C41.8817 23.6599 41.1785 23.4585 40.0735 23.3073Z" fill="black" stroke="black" stroke-width="2"/>
<path d="M37.2097 26.7326C36.8078 26.6823 36.3558 26.6319 35.8535 26.6319C35.3512 26.6319 34.8489 26.7326 34.3467 26.783C33.2919 26.8838 32.2371 26.9341 31.4837 26.9845C30.68 27.0349 30.1777 27.0852 30.1777 27.0852V27.186C30.1777 27.186 30.68 27.2364 31.4837 27.3371C32.2873 27.4378 33.2919 27.4882 34.3467 27.589C34.8489 27.6393 35.4015 27.6897 35.9037 27.6897C36.406 27.6897 36.8581 27.6393 37.2599 27.5386C38.0635 27.3875 38.5658 27.1356 38.5658 27.1356V27.0349C38.5156 27.0349 37.9631 26.8334 37.2097 26.7326Z" fill="black" stroke="black" stroke-width="2"/>
</svg>
