<svg width="40" height="40" viewBox="0 0 40 40" fill="none" xmlns="http://www.w3.org/2000/svg">
<circle cx="20" cy="20" r="20" fill="black"/>
<path d="M19.1372 19.4445V13.0153C19.1372 12.6999 19.2207 12.4679 19.3877 12.3195C19.5547 12.1711 19.7495 12.0968 19.9722 12.0968C20.1763 12.0968 20.3618 12.1711 20.5288 12.3195C20.7144 12.4679 20.8071 12.6999 20.8071 13.0153V19.4445H28.0991C28.4517 19.4445 28.7021 19.528 28.8506 19.695C29.0176 19.8434 29.1011 20.0197 29.1011 20.2238C29.1011 20.4093 29.0176 20.5763 28.8506 20.7248C28.7021 20.8732 28.4517 20.9474 28.0991 20.9474H20.8071V27.4323C20.8071 27.7477 20.7144 27.9796 20.5288 28.1281C20.3618 28.258 20.1763 28.3229 19.9722 28.3229C19.7495 28.3229 19.5547 28.258 19.3877 28.1281C19.2207 27.9796 19.1372 27.7477 19.1372 27.4323V20.9474H11.873C11.5205 20.9474 11.2607 20.8732 11.0938 20.7248C10.9453 20.5763 10.8711 20.4093 10.8711 20.2238C10.8711 20.0197 10.9453 19.8434 11.0938 19.695C11.2607 19.528 11.5205 19.4445 11.873 19.4445H19.1372Z" fill="white"/>
<path d="M19.1372 19.4445V19.8195H19.5122V19.4445H19.1372ZM20.5288 12.3195L20.2797 12.5998L20.2869 12.6062L20.2945 12.6123L20.5288 12.3195ZM20.8071 19.4445H20.4321V19.8195H20.8071V19.4445ZM28.8506 19.695L28.5703 19.9441L28.585 19.9606L28.6014 19.9753L28.8506 19.695ZM28.8506 20.7248L28.6014 20.4445L28.5932 20.4518L28.5854 20.4596L28.8506 20.7248ZM20.8071 20.9474V20.5724H20.4321V20.9474H20.8071ZM20.5288 28.1281L20.7591 28.4241L20.7631 28.4209L20.5288 28.1281ZM19.3877 28.1281L19.1386 28.4084L19.1478 28.4165L19.1575 28.4241L19.3877 28.1281ZM19.1372 20.9474H19.5122V20.5724H19.1372V20.9474ZM11.0938 20.7248L10.8286 20.9899L10.8364 20.9977L10.8446 21.005L11.0938 20.7248ZM19.5122 19.4445V13.0153H18.7622V19.4445H19.5122ZM19.5122 13.0153C19.5122 12.7615 19.5785 12.6516 19.6368 12.5998L19.1386 12.0392C18.8629 12.2843 18.7622 12.6382 18.7622 13.0153H19.5122ZM19.6368 12.5998C19.7354 12.5121 19.8417 12.4718 19.9722 12.4718V11.7218C19.6573 11.7218 19.3739 11.83 19.1386 12.0392L19.6368 12.5998ZM19.9722 12.4718C20.0754 12.4718 20.1743 12.5061 20.2797 12.5998L20.7779 12.0392C20.5493 11.836 20.2771 11.7218 19.9722 11.7218V12.4718ZM20.2945 12.6123C20.364 12.6678 20.4321 12.7737 20.4321 13.0153H21.1821C21.1821 12.626 21.0647 12.268 20.7631 12.0267L20.2945 12.6123ZM20.4321 13.0153V19.4445H21.1821V13.0153H20.4321ZM20.8071 19.8195H28.0991V19.0695H20.8071V19.8195ZM28.0991 19.8195C28.4056 19.8195 28.5254 19.8936 28.5703 19.9441L29.1309 19.4458C28.8789 19.1623 28.4977 19.0695 28.0991 19.0695V19.8195ZM28.6014 19.9753C28.6969 20.0601 28.7261 20.1377 28.7261 20.2238H29.4761C29.4761 19.9017 29.3383 19.6267 29.0997 19.4147L28.6014 19.9753ZM28.7261 20.2238C28.7261 20.2805 28.7062 20.3514 28.6014 20.4445L29.0997 21.005C29.329 20.8013 29.4761 20.5382 29.4761 20.2238H28.7261ZM28.5854 20.4596C28.5422 20.5028 28.4159 20.5724 28.0991 20.5724V21.3224C28.4874 21.3224 28.8621 21.2436 29.1158 20.9899L28.5854 20.4596ZM28.0991 20.5724H20.8071V21.3224H28.0991V20.5724ZM20.4321 20.9474V27.4323H21.1821V20.9474H20.4321ZM20.4321 27.4323C20.4321 27.6739 20.364 27.7797 20.2945 27.8353L20.7631 28.4209C21.0647 28.1796 21.1821 27.8216 21.1821 27.4323H20.4321ZM20.2986 27.8321C20.1948 27.9128 20.0897 27.9479 19.9722 27.9479V28.6979C20.2629 28.6979 20.5288 28.6032 20.759 28.4241L20.2986 27.8321ZM19.9722 27.9479C19.8282 27.9479 19.7155 27.908 19.6179 27.8321L19.1575 28.4241C19.3939 28.608 19.6708 28.6979 19.9722 28.6979V27.9479ZM19.6368 27.8478C19.5785 27.796 19.5122 27.6861 19.5122 27.4323H18.7622C18.7622 27.8094 18.8629 28.1633 19.1386 28.4084L19.6368 27.8478ZM19.5122 27.4323V20.9474H18.7622V27.4323H19.5122ZM19.1372 20.5724H11.873V21.3224H19.1372V20.5724ZM11.873 20.5724C11.5618 20.5724 11.4111 20.5051 11.3429 20.4445L10.8446 21.005C11.1104 21.2413 11.4792 21.3224 11.873 21.3224V20.5724ZM11.3589 20.4596C11.2707 20.3714 11.2461 20.2965 11.2461 20.2238H10.4961C10.4961 20.5222 10.6199 20.7812 10.8286 20.9899L11.3589 20.4596ZM11.2461 20.2238C11.2461 20.1223 11.2786 20.0405 11.3589 19.9601L10.8286 19.4298C10.6121 19.6463 10.4961 19.9171 10.4961 20.2238H11.2461ZM11.3589 19.9601C11.4274 19.8916 11.5714 19.8195 11.873 19.8195V19.0695C11.4696 19.0695 11.0941 19.1643 10.8286 19.4298L11.3589 19.9601ZM11.873 19.8195H19.1372V19.0695H11.873V19.8195Z" fill="white"/>
</svg>
