<svg width="49" height="37" viewBox="0 0 49 37" fill="none" xmlns="http://www.w3.org/2000/svg">
<path d="M7.69054 16.3488C6.4382 16.3488 5.38623 16.5481 4.28417 16.598C2.93164 16.6977 1.92977 16.4983 1.32864 14.9034C0.677425 12.9595 1.12827 11.1652 1.52902 9.32109C1.77949 8.02521 2.33052 6.77916 3.38249 5.88201C3.58286 5.73249 3.73314 5.53312 3.98361 5.43344C5.38623 4.63597 6.83895 3.93819 8.44195 3.48961C10.1952 2.94135 11.9986 2.99119 13.802 2.74198C14.2027 2.69214 14.4031 2.59246 14.4031 2.14388C14.4532 1.34642 16.0061 0.698474 16.6573 1.14705C16.9579 1.34642 16.9579 1.64547 16.9078 1.94452C16.8577 2.39309 16.9078 2.59246 17.4588 2.44293C18.6611 2.14388 19.8633 2.29341 21.0656 2.34325C21.4663 2.34325 21.9172 2.44293 22.3179 2.44293C24.2716 2.39309 26.2252 2.59246 28.1288 2.6423C28.5796 2.6423 29.0806 2.59246 29.5314 2.69214C29.7819 2.74198 29.9321 2.6423 30.0323 2.39309C30.383 1.4461 30.4832 1.4461 31.435 1.59563C31.8858 1.69531 32.2865 1.74515 32.7374 1.74515C33.2383 1.74515 33.4387 1.89468 33.1381 2.34325C32.8376 2.84167 33.038 2.99119 33.5389 2.99119C35.8933 2.79183 38.0473 3.53945 40.2014 4.33692C42.4055 5.13439 44.0085 6.67948 44.5595 9.02204C44.6096 9.27125 44.7098 9.32109 44.9102 9.42078C45.3109 9.62014 45.6616 9.86935 46.0122 10.1186C47.1644 10.8662 47.3647 12.0624 47.5651 13.2586C47.6152 13.458 47.6152 13.7072 47.6653 13.9065C48.0661 15.3519 48.1162 16.8472 47.7655 18.3424C47.4649 19.4888 46.7636 20.4856 45.8619 21.3329C44.2589 22.7784 42.2552 23.3266 40.2014 23.7752C39.7505 23.8749 39.2496 23.9746 38.7987 24.1241C37.9471 24.473 37.1456 23.8749 36.294 24.1241C35.8933 24.2238 35.7931 24.3235 35.7931 24.6723C35.7931 26.0181 35.8432 27.3638 36.0436 28.7095C36.0937 29.0584 36.0436 29.4073 35.9935 29.7064C35.9434 29.9556 35.7931 30.2048 36.1939 30.3045C36.4443 30.3543 36.294 30.6035 36.1939 30.7032C35.5927 31.2515 35.6428 31.9991 35.5426 32.6969C35.4425 33.1953 35.3924 33.4445 34.7912 33.6439C33.6892 34.0426 32.5871 34.3416 31.4851 34.7902C30.6335 35.1391 29.7318 35.189 28.78 35.2886C27.1269 35.4382 25.5239 35.7871 23.9209 35.8867C22.9691 35.9366 21.9672 36.0363 21.0155 35.9864C19.8132 35.8867 18.5609 36.0363 17.3586 35.9366C15.2547 35.7372 13.1007 35.6375 11.0468 35.1391C10.3455 34.9397 9.6442 34.8401 8.94289 34.5909C7.79073 34.242 7.38998 33.6937 7.54026 32.5473C7.64045 31.5505 7.64045 30.5537 7.84082 29.6067C8.14139 28.4105 8.29167 27.1644 8.59223 25.9682C8.8427 25.0212 9.19335 24.0742 9.14326 23.0276C9.14326 22.3796 9.44382 21.7815 9.69429 21.1834C9.74438 21.0339 9.84457 20.8844 9.99485 20.8345C11.2973 20.6352 12.0988 19.6383 13.1007 18.9904C14.4031 18.1929 15.7055 17.3456 16.9078 16.3986C17.7093 15.7507 18.611 15.1526 18.9616 14.0561C19.0618 13.6573 18.9616 13.6573 18.6611 13.6075C18.0599 13.5576 17.7093 13.1589 17.9097 12.6106C18.0599 12.1621 17.8596 12.1122 17.559 12.0125C16.9579 11.8132 16.4068 11.6138 15.8057 11.4144C14.2027 10.8662 13.9022 9.47062 13.7519 8.12489C13.6517 7.07822 13.5014 6.92869 12.4494 7.22774C12.2491 7.27758 12.0988 7.32742 11.9485 7.42711C11.5478 7.62647 10.8965 7.52679 10.8965 8.12489C10.8965 8.67315 11.0969 9.22141 11.7481 9.62014C12.4995 10.0687 12.4995 10.9659 12.4494 11.7135C12.3994 12.8599 11.8483 13.9065 11.4476 14.9532C10.9967 16.0996 10.2453 16.3488 9.14326 16.3488C8.59223 16.2989 8.09129 16.2989 7.69054 16.3488ZM16.6573 7.07822C17.1082 6.82901 17.4588 6.77917 17.8596 6.77917C18.5108 6.82901 19.2121 6.87885 19.8633 6.87885C21.0155 6.82901 22.1175 6.77916 23.2697 6.92869C25.2734 7.12806 27.2271 6.67948 29.2308 6.82901C29.6316 6.87885 29.4813 6.52996 29.5314 6.33059C29.5815 5.9817 29.331 5.53312 29.6817 5.28391C30.2327 4.88518 30.8839 4.88518 31.4851 5.0347C31.986 5.18423 32.0361 5.78233 32.0361 6.28075C32.0361 6.62964 32.1363 6.77916 32.4368 6.92869C33.038 7.32742 33.7393 7.22774 34.3905 7.37727C34.9916 7.52679 35.192 7.82584 35.0918 8.32426C34.9415 9.17157 34.9415 10.0189 34.641 10.8163C34.4907 11.1652 34.4406 11.4643 34.9916 11.5141C35.3423 11.564 35.6929 11.7135 35.9935 11.863C37.9471 12.8599 40.0511 13.2586 42.2051 13.6573C42.5558 13.7072 42.9565 13.8068 43.3072 13.8068C43.758 13.8068 44.0586 13.6573 44.0586 13.0592C44.0586 11.9129 44.1588 10.7665 44.0586 9.62014C43.9083 8.22458 43.1569 7.12806 42.3053 6.13122C41.604 5.3836 40.6021 5.0347 39.7004 4.68581C38.5984 4.28708 37.4963 4.03787 36.3942 3.68898C35.3924 3.38993 34.3905 3.34009 33.3385 3.19056C33.2383 3.19056 33.088 3.19056 33.038 3.29024C32.6372 3.73882 32.2865 3.8385 31.5852 3.63914C30.7837 3.43977 29.9321 3.29024 29.0806 3.14072C27.5777 2.94135 26.0248 2.99119 24.4719 2.89151C22.4181 2.74198 20.3142 2.79183 18.2603 2.59246C17.7093 2.54262 17.1583 2.54262 16.7575 3.04104C16.6573 3.14072 16.507 3.2404 16.4068 3.19056C15.7055 2.99119 15.0042 3.68898 14.3029 3.19056C12.75 3.48961 11.0969 3.29024 9.49392 3.73882C7.69054 4.23724 5.98736 4.88518 4.33427 5.78233C3.93352 6.03154 3.83333 6.5798 3.33239 6.67948C2.98174 6.77916 2.83145 7.02837 2.73127 7.27758C1.97986 8.82268 1.77949 10.4675 1.6793 12.1621C1.62921 12.8599 2.02996 13.1091 2.58099 13.2586C5.13576 13.8567 7.74064 13.8567 10.3455 13.3583C10.7463 13.3084 11.2973 13.3084 11.5478 12.9097C11.8984 12.2618 11.9986 11.6138 11.8984 10.8662C11.7481 9.91919 10.9466 9.42078 10.4958 8.72299C10.1451 8.17473 10.1451 7.82584 10.6962 7.47695C11.2472 7.12806 11.7982 6.92869 12.4494 6.77917C13.9022 6.48011 13.9022 6.48011 14.0524 5.0347C14.1025 4.58613 14.3029 4.33692 14.7037 4.28708C15.3048 4.23724 15.8558 3.98803 16.4569 4.18739C16.2065 4.88518 16.3067 5.53312 16.3568 6.18106C16.3568 7.12806 16.8577 7.776 17.7093 8.27442C18.8113 8.92236 20.1138 8.82268 21.316 9.07189C21.817 9.17157 22.368 9.27125 22.8689 9.22141C24.0712 9.17157 25.2734 9.22141 26.4256 9.07189C27.5777 8.92236 28.7299 8.62331 29.331 7.27758C27.2271 6.87885 25.2233 7.62647 23.1695 7.32742C20.9654 7.07822 18.8614 7.52679 16.6573 7.07822ZM17.7093 20.1866C17.9097 20.0869 18.2603 20.1367 18.5108 19.8875C20.4143 18.1929 22.7687 18.3923 25.023 18.5917C25.0731 18.5917 25.1231 18.6415 25.2233 18.6913C26.0248 19.2396 26.8764 19.738 27.4776 20.5355C28.5796 21.9809 29.1807 23.5758 28.4293 25.3203C27.5777 27.314 26.2753 28.9089 24.2716 29.9057C22.9691 30.5537 21.5665 30.6035 20.1639 30.3543C18.3104 29.9556 16.507 27.8124 16.2566 25.9184C16.1564 24.9216 15.8057 23.9746 16.1063 22.9279C15.4551 23.8749 14.6035 24.5228 13.8521 25.3203C13.4513 25.719 13.1007 26.1676 12.6999 26.5663C11.5478 27.613 10.095 28.3606 9.34364 29.806C9.24345 29.9556 9.04307 30.1051 8.8427 30.2048C8.64232 30.3045 8.34176 30.3543 8.44195 30.6534C8.49204 30.9026 8.69242 31.0521 8.99298 31.1518C9.79448 31.4508 10.6461 31.6003 11.4476 31.8994C13.6016 32.7467 15.9059 32.6969 18.11 32.7467C19.6128 32.7965 21.1157 32.6969 22.6686 32.7965C23.1695 32.8464 23.7205 32.8464 24.2215 32.7965C26.2753 32.4975 28.3291 32.5473 30.3329 32.1486C31.8858 31.8496 33.3385 31.401 34.8413 30.9026C35.2922 30.753 35.1419 30.3543 35.2922 30.0553C35.3924 29.9057 35.2922 29.7064 35.0918 29.6565C34.3905 29.507 34.0398 28.9587 33.5389 28.56C31.8858 27.1644 30.6835 25.5197 29.7819 23.6257C28.4293 20.7847 27.3273 17.7942 27.3774 14.5545C27.3774 13.5078 27.2772 13.4081 26.2753 13.5576C24.1714 13.8567 22.0674 13.5576 19.9635 13.6075C19.7631 13.6075 19.5627 13.6075 19.6128 13.8567C19.6629 14.1557 19.5127 14.4548 19.5127 14.7538C19.2121 16.598 18.1601 18.2926 17.7093 20.1866ZM44.9102 10.8163C44.7599 11.0656 44.7599 11.2649 44.7599 11.4643C44.81 13.0094 44.4593 14.4548 44.1087 15.95C43.9083 16.7974 43.758 17.1462 42.8062 16.9469C42.155 16.7974 41.4036 17.0466 40.7524 16.8472C38.6985 16.2989 36.5946 15.9002 34.7411 14.704C34.0899 14.2554 33.7393 13.8068 33.7894 13.0094C33.8395 12.4611 33.9396 11.9129 34.0398 11.4144C34.2402 10.4176 34.4406 9.42078 34.641 8.42394C34.7411 8.02521 34.641 7.87568 34.1901 7.87568C33.6391 7.82584 33.038 7.87568 32.6372 7.27758C32.537 7.12806 32.3366 7.12806 32.1864 7.1779C32.1363 7.22774 32.1363 7.42711 32.1363 7.57663C32.1363 7.92553 32.1363 8.27442 32.1363 8.62331C32.1864 9.91919 31.5351 10.916 30.3329 11.3646C29.9822 11.5141 29.6316 11.8132 29.1807 11.7135C29.0305 11.6637 29.0305 11.863 28.9804 12.0624C28.9303 12.6605 29.1306 13.3084 28.5796 13.8068C28.4794 13.9065 28.4794 14.0062 28.5796 14.1059C29.1807 14.7538 29.5314 15.6012 29.9321 16.3986C30.2828 17.1462 30.9841 17.545 31.5351 18.0434C32.4869 18.8409 33.2884 19.8377 34.3404 20.4856C34.8413 20.7847 35.3423 20.8345 35.8933 20.9342C36.0937 20.9841 36.294 21.0837 36.3441 21.2831C36.3942 21.5323 36.1939 21.5822 35.9935 21.632C35.743 21.6818 35.6929 21.8812 35.6929 22.0806C35.6929 22.4793 35.743 22.878 35.8933 23.2269C36.4944 22.7285 37.1957 22.3796 37.9972 22.4295C39.6503 22.5292 41.2032 22.1304 42.6559 21.5323C43.8582 21.0339 45.1606 20.7348 45.8619 19.2894C47.3147 16.3488 46.7135 13.7072 45.2107 11.0656C45.1105 11.0157 45.0103 10.916 44.9102 10.8163ZM23.1695 28.4105C23.1194 28.6597 23.1194 28.7594 23.1194 28.8092C23.0693 29.0086 23.0192 29.2578 22.7687 29.2578C22.5183 29.2578 22.4682 29.0086 22.4181 28.8092C22.2678 28.1114 22.1676 27.4635 22.2678 26.7657C22.3179 26.4168 22.4181 26.3171 22.7687 26.3171C23.6203 26.367 23.8708 26.6162 23.7205 27.4136C23.6203 27.9121 23.7706 28.3606 24.0211 28.8092C24.1714 29.1083 24.2716 29.1581 24.5721 29.0086C26.4256 28.0616 27.4776 26.5165 28.0787 24.5727C28.1789 24.2736 28.1789 23.8749 28.1288 23.5758C27.9785 22.2301 27.3273 21.1336 26.2753 20.2364C25.2233 19.2894 24.0211 18.8409 22.5684 19.0901C21.6166 19.2396 20.765 19.5386 19.8633 19.738C18.0098 20.2364 16.8076 21.7317 16.507 23.526C16.4569 23.825 16.3568 24.2238 16.6573 24.3235C16.9078 24.4231 17.008 23.9746 17.1583 23.7752C17.4087 23.4263 17.6592 23.0774 18.11 23.4761C18.5108 23.825 18.8113 24.3235 18.5609 24.8717C18.3605 25.3701 17.8596 25.5197 17.3085 25.3701C16.5571 25.1708 16.7074 25.6193 16.8577 25.9682C17.0581 26.6162 17.3586 27.2641 17.7093 27.8622C18.1601 28.7095 18.9616 29.2578 19.9635 29.6067C19.7631 29.1581 19.6128 28.859 19.4626 28.5102C19.2622 28.0616 19.7631 27.8622 19.8633 27.5133C19.9134 27.4136 20.0637 27.4136 20.1639 27.4136C21.2158 27.7625 21.5665 28.8591 20.765 29.6565C20.8151 29.7064 20.8652 29.7562 20.9153 29.7562C21.3661 29.7562 21.817 29.7562 22.2177 29.7562C23.5702 29.7562 23.5702 29.7562 23.1695 28.4105ZM35.3924 22.7784C35.3924 22.579 35.3423 22.3796 35.3924 22.2301C35.5927 21.6818 35.2922 21.4326 34.7912 21.3828C34.3905 21.333 34.14 21.0837 33.7894 20.8844C32.8376 20.3361 32.1864 19.439 31.3348 18.7412C30.8839 18.3923 30.4331 18.0434 30.0824 17.5948C29.2809 16.598 28.8301 15.5015 28.2791 14.405C28.229 14.2554 28.1288 14.1557 27.9785 14.1557C27.7781 14.2056 27.8783 14.4049 27.8783 14.5046C27.8783 15.4516 27.9284 16.3986 28.1789 17.2958C28.6297 18.8409 28.9804 20.4358 29.6817 21.8812C30.0824 22.6787 30.6835 23.3765 30.9841 24.1241C31.7856 26.0181 33.3886 27.1644 34.641 28.56C34.7912 28.7594 34.9916 28.9089 35.2421 28.8092C35.4925 28.7095 35.3924 28.4603 35.3924 28.2609C35.3924 27.3638 35.2421 26.4168 35.2421 25.5197C35.2421 24.6225 35.4425 23.6755 35.3924 22.7784ZM8.74251 28.9587C9.6442 28.5102 10.1952 27.8124 10.7964 27.1644C12.75 25.1708 14.904 23.3266 16.3067 20.8345C17.1583 19.3393 17.6592 17.7443 18.1601 16.1494C18.0599 16.1494 18.0098 16.1494 17.9598 16.1993C16.4569 17.545 14.6536 18.3923 13.0506 19.6383C12.2992 20.1866 11.5979 20.8345 10.596 20.9841C10.1451 21.0837 9.89467 21.4326 9.84457 21.9311C9.6442 23.2768 9.49392 24.6225 9.24345 25.9184C9.14326 26.8654 8.64232 27.8124 8.74251 28.9587ZM27.5777 33.1953C27.728 34.0924 28.2791 33.4943 28.6297 33.5442C28.8301 33.5442 29.1807 33.4445 29.0806 33.0956C29.0305 32.7467 28.6798 32.8962 28.5295 32.8962C26.4256 33.0956 24.2716 33.4445 22.1676 33.295C20.5646 33.1953 18.9616 33.295 17.3586 33.295C16.0562 33.295 14.7538 33.2451 13.4012 33.1953C13.7018 33.3448 14.1526 33.0956 14.2528 33.4943C14.353 33.8931 13.7018 33.5442 13.6517 33.9429C14.5534 34.242 15.6053 34.1423 16.5571 34.5909C16.1564 34.7902 15.8558 34.6905 15.6053 34.6407C15.0042 34.5909 14.4031 34.4912 13.802 34.3915C13.6016 34.3915 13.4012 34.2918 13.3511 34.541C13.2509 34.8899 13.6016 34.7404 13.7018 34.7902C13.802 34.8401 13.9523 34.8899 14.1025 34.8899C15.956 34.8899 17.7594 35.2388 19.6128 35.2388C21.6166 35.2388 23.5702 35.2886 25.5239 35.0394C25.9747 34.9896 26.3755 34.9397 26.8263 34.8899C27.1269 34.8401 27.3273 34.6905 27.3273 34.3416C27.3273 33.8432 26.9766 34.2918 26.8263 34.1921C26.7261 34.1423 26.5759 34.1921 26.2753 34.1921C26.8764 33.9429 27.5276 33.9429 27.5777 33.1953ZM29.4312 9.02204C29.0305 9.37094 28.5796 9.17157 28.3792 9.52046C28.6297 9.81951 28.9303 9.66998 29.3811 9.66998C28.3792 10.1684 29.1807 10.2681 29.4312 10.5671C28.8802 10.4176 28.3291 10.617 27.8783 10.3678C27.6278 10.2182 27.1269 10.4675 27.1269 10.0687C27.1269 9.76967 27.5276 9.76967 27.8282 9.71983C27.9284 9.66999 28.0787 9.66999 28.0286 9.52046C27.9785 9.42078 27.9284 9.37093 27.7781 9.42078C27.4776 9.52046 27.2271 9.66999 26.8764 9.71983C25.8245 9.86935 24.7725 9.81951 23.6704 9.86935C23.3699 9.86935 23.0693 9.76967 22.8689 9.96904C22.5183 10.3179 22.1175 10.2681 21.7168 10.3179C21.0155 10.4176 20.3642 10.2182 19.6629 10.3678C19.4125 10.4176 19.1119 10.617 18.7612 10.3678C19.8132 10.1186 20.765 9.86935 21.7669 9.96904C20.4143 9.62014 19.0117 10.0189 17.6592 9.96904C17.5089 9.96904 17.2584 10.1186 17.2083 9.86935C17.1583 9.5703 17.4588 9.62014 17.6592 9.5703C17.9097 9.5703 18.1601 9.62014 18.4106 9.52046C18.11 9.27125 17.8095 9.17157 17.559 9.22141C17.3085 9.27125 17.1082 9.12173 16.9078 9.17157C16.6573 8.27442 16.1063 8.82268 15.7055 8.92236C15.3549 9.02204 15.2046 8.9722 15.1545 8.52363C14.904 8.9722 14.9541 9.12173 15.1545 9.52046C15.9059 10.7665 17.008 11.4144 18.4607 11.1154C18.6611 11.0656 18.9115 11.1154 19.1119 11.1154C19.0117 11.2649 18.8113 11.1154 18.7612 11.3148C19.1119 11.4643 19.4125 11.4643 19.8132 11.4144C20.1639 11.3646 20.0637 10.617 20.6147 10.9659C20.6147 11.1652 20.1639 10.9659 20.2641 11.2649C20.3142 11.4144 20.4143 11.564 20.7149 11.6138C22.7187 11.863 24.7224 11.7135 26.7762 11.7135C27.728 11.7135 28.5295 11.1154 29.3811 10.916C30.383 10.6668 30.7837 10.0189 31.1845 9.22141C30.934 9.07188 30.7336 9.17157 30.5333 9.17157C30.4331 9.17157 30.2327 9.27125 30.2327 9.02204C30.2327 8.87252 30.3329 8.72299 30.5333 8.77283C30.6335 8.77283 30.7336 8.77283 30.7837 8.82268C31.2346 8.92236 31.2346 8.92236 31.3849 8.32426C30.4331 8.77283 29.3811 8.57347 28.4293 8.92236C28.4293 8.9722 28.4293 9.07188 28.4794 9.12173C28.78 9.02204 29.0806 9.02204 29.4312 9.02204ZM40.4518 14.1059C40.3015 14.0062 40.2514 13.9564 40.1513 13.9065C38.2978 13.6075 36.5946 13.1091 35.0417 11.9627C34.9415 11.863 34.691 11.7135 34.4907 11.9129C34.14 12.3116 34.3404 13.8068 34.8413 14.0561C37.1957 15.4018 39.7505 16.2989 42.5057 16.3488C43.2571 16.3488 43.8582 15.1526 43.4574 14.3551C43.3573 14.6043 43.5576 14.9532 43.3573 15.003C42.7561 15.2024 42.4556 16.0996 41.604 15.8005C41.4537 15.7507 41.2032 15.8504 41.0529 15.8005C40.5019 15.651 39.9509 15.7507 39.4499 15.4516C40.2514 15.4516 41.0028 15.5015 41.8044 15.5513C42.0548 15.5513 42.4055 15.6012 42.5057 15.2523C42.5558 15.1526 42.6559 15.003 42.5057 14.9532C42.3053 14.8037 42.0548 14.7538 41.7543 14.8535C41.8044 15.0529 42.1049 14.9532 42.0548 15.1526C42.0548 15.3021 41.8544 15.2523 41.7543 15.2523C41.0529 15.3519 40.3516 14.9034 39.6002 15.2523C39.7004 14.7538 39.8507 14.704 40.2514 14.9034C40.5019 15.0031 40.8526 15.0529 41.2533 14.7538C40.5019 14.704 39.9008 14.5545 39.2496 14.1557C39.8006 14.1557 40.1012 14.1059 40.4518 14.1059ZM11.0468 13.8567C10.1952 13.8068 9.44382 14.2056 8.69242 14.1557C7.64045 14.0561 6.63858 14.6043 5.6367 14.704C5.43633 14.704 5.38623 14.9034 5.43633 15.003C5.53651 15.3519 5.58661 15.6012 5.08567 15.5015C4.73501 15.4018 4.58473 15.9999 4.18398 15.7008C4.0838 15.651 4.0337 15.4516 3.93352 15.651C3.88342 15.7507 3.88342 15.8504 3.88342 15.9999C3.88342 16.0996 4.0337 16.0996 4.13389 16.0497C5.98736 15.8005 7.84082 15.7507 9.69429 15.651C10.5459 15.6012 10.7463 15.4018 10.7964 14.5046C10.8464 14.2554 10.9967 14.1059 11.0468 13.8567ZM18.4106 12.2618C18.8614 12.2618 18.6611 12.9097 19.2121 12.9097C20.5646 12.9097 21.9672 13.0094 23.3198 13.0094C24.6723 13.0592 25.9747 12.81 27.3273 12.8599C27.5777 12.8599 27.6779 12.81 27.6779 12.5608C27.6278 12.3116 27.5276 12.2618 27.2271 12.2618C25.023 12.2119 22.7687 12.5608 20.5646 12.3116C19.9134 12.2618 19.162 12.0624 18.4106 12.2618ZM12.8502 33.8931C13.1007 34.0426 13.301 33.9429 13.3511 33.6937C13.3511 33.3946 13.1007 33.5442 12.9504 33.5442C11.9485 33.3448 10.8965 33.1953 9.89467 32.9959C9.54401 32.9461 9.14326 32.7965 8.89279 32.5972C8.64232 32.3978 9.04307 32.1486 9.04307 31.9492C9.04307 31.8994 9.04307 31.8496 9.04307 31.7997C9.04307 31.5505 8.89279 31.401 8.69242 31.401C8.44195 31.401 8.54214 31.6502 8.54214 31.7499C8.39186 32.4477 8.64232 33.0956 9.04307 33.6937C9.19335 33.8931 9.84457 34.1423 9.84457 33.9429C9.84457 33.0956 10.1952 33.594 10.5459 33.6439C11.2472 33.7934 12.0487 33.6439 12.8502 33.8931ZM30.5834 8.02521C31.3348 8.22458 31.435 7.72616 31.435 7.22774C31.435 6.77917 31.2346 6.33059 31.2346 5.88201C31.2346 5.48328 30.8839 5.58296 30.5834 5.58296C30.2828 5.63281 30.1325 5.73249 30.2327 6.08138C30.2828 6.28075 30.4832 6.62964 30.1325 6.72932C29.2809 6.97853 30.0323 7.47695 29.9822 7.87568C29.9822 8.12489 30.4331 7.97537 30.5834 8.02521ZM14.6035 8.22458C15.0543 8.07505 15.6053 8.07505 15.8057 7.776C16.0061 7.52679 15.6053 7.12806 15.4551 6.82901V6.77917C15.5052 6.33059 15.3048 6.33059 14.9541 6.52996C14.8038 6.62964 14.7037 6.72932 14.5033 6.5798C14.4532 6.52996 14.4532 6.43027 14.4532 6.38043C14.5033 6.13122 14.7538 6.23091 14.8539 6.23091C15.3549 6.23091 15.5553 5.9817 15.3549 5.58296C15.2547 5.43344 15.3549 5.33376 15.3549 5.23407C15.405 5.08455 15.4551 4.93502 15.2046 4.98486C14.8539 5.0347 14.4532 5.08455 14.4031 5.48328C14.3029 5.93186 14.2528 6.43027 14.2528 6.92869C14.2528 7.12806 14.2027 7.47695 14.6035 7.1779C14.7538 7.02837 14.8038 7.22774 14.8038 7.37727C14.9541 7.62647 14.6536 7.82584 14.6035 8.22458ZM32.4869 32.8962C30.9841 33.3946 29.5314 33.7435 28.0286 33.9927C27.6278 34.0426 27.8282 34.3915 27.7781 34.5909C27.728 34.8899 28.0286 34.7902 28.1789 34.7404C28.6297 34.6407 29.1807 34.7404 29.2809 34.0924C29.2809 33.9429 29.331 33.9927 29.4312 33.9927C30.5333 34.0924 31.3849 33.3946 32.3867 33.0956C32.4368 33.1454 32.4368 33.0458 32.4869 32.8962ZM32.7374 33.7435C33.4387 33.594 33.9897 33.3946 34.5408 33.0956C34.8914 32.8962 35.1419 31.8994 34.9415 31.5505C34.8914 31.4508 34.7912 31.4508 34.691 31.5007C34.2402 31.7 33.8395 31.8994 33.3886 32.0988C33.8895 31.9991 33.8395 31.9991 34.0398 32.4477C34.0899 32.5473 34.2903 32.5473 34.4406 32.647C33.8895 32.9959 33.1882 33.0458 32.7374 33.7435ZM32.537 32.4975C31.7355 32.1486 31.0342 32.7965 30.2828 32.6969C30.0824 32.647 29.8821 32.7467 29.6817 32.7467C29.4813 32.7965 29.4312 32.8962 29.4813 33.0956C29.5314 33.295 29.6817 33.295 29.7819 33.2451C30.6335 32.9959 31.5852 32.7467 32.537 32.4975ZM11.9986 32.8962C11.2472 32.4477 10.3956 32.3978 9.5941 32.0988C9.44382 32.0489 9.29354 32.0988 9.24345 32.2483C9.19335 32.4975 9.39373 32.3978 9.49392 32.4477C10.2954 32.7467 11.147 32.7965 11.9986 32.8962ZM18.3605 24.2736C18.3104 23.9746 18.1601 23.8749 17.8596 23.8749C17.4087 23.9247 17.4087 24.2238 17.3586 24.5727C17.3085 24.8219 17.5089 24.8717 17.7093 24.8717C18.0599 24.8219 18.2102 24.5228 18.3605 24.2736ZM20.0136 28.1114C19.9134 28.1114 19.8633 28.261 19.9134 28.4105C20.0136 28.7594 20.214 28.9587 20.5646 28.9587C20.7149 28.9587 20.9654 28.9089 20.8652 28.7095C20.7149 28.4603 20.5646 28.1613 20.0136 28.1114ZM32.4368 33.6439C31.5351 33.8931 30.6335 34.1921 29.7318 34.4413C30.7336 34.4912 31.5852 34.0924 32.4368 33.6439Z" fill="black" stroke="black" stroke-width="0.5"/>
<path d="M21.5662 25.9184C20.7146 25.9184 19.9131 25.1209 19.9632 24.2736C20.0133 23.1771 20.9149 22.1803 21.8667 22.1803C23.3194 22.1803 24.0208 22.6787 24.0208 23.7253C23.9707 24.8219 22.7183 25.9184 21.5662 25.9184ZM21.3658 24.6723C22.2174 24.6225 22.7183 24.2736 22.7183 23.6257C22.7183 23.1272 22.4178 23.0276 21.9669 23.0276C21.5161 23.0276 20.7146 23.7253 20.8148 24.0742C20.8649 24.3234 20.8649 24.772 21.3658 24.6723Z" fill="black" stroke="black" stroke-width="0.5"/>
<path d="M24.6226 20.7348C24.6226 21.3329 24.1718 21.931 23.771 21.931C23.4704 21.931 22.6689 21.1336 22.6689 20.8345C22.6689 20.4358 23.4204 19.7878 23.9213 19.8377C24.5725 19.8377 24.5224 20.3361 24.6226 20.7348ZM23.6708 21.4825C24.0215 21.4326 24.2218 21.2333 24.2218 20.8844C24.2218 20.6352 24.2218 20.3361 23.8712 20.3361C23.5205 20.386 23.3202 20.685 23.2701 20.9841C23.22 21.3329 23.4204 21.4825 23.6708 21.4825Z" fill="black" stroke="black" stroke-width="0.5"/>
<path d="M18.4614 26.0679C19.1627 26.0679 19.5133 26.4168 19.5133 26.9152C19.5133 27.4635 19.0124 27.912 18.4614 27.912C17.9604 27.912 17.71 27.5133 17.71 26.7657C17.71 26.1177 18.0606 26.0181 18.4614 26.0679ZM18.4614 26.4666C18.3111 26.5663 18.0105 26.5663 18.0606 26.8654C18.1107 27.1146 18.0606 27.4635 18.4113 27.4635C18.7118 27.4635 18.9122 27.2143 18.9623 26.9651C19.0625 26.5165 18.6116 26.666 18.4614 26.4666Z" fill="black" stroke="black" stroke-width="0.5"/>
<path d="M25.6743 21.0837C26.2754 21.0837 26.576 21.3329 26.6261 21.8314C26.6762 22.1803 25.9749 22.7285 25.6242 22.7285C25.2235 22.7285 24.5723 22.1304 24.6724 21.6818C24.7726 21.1834 25.3237 21.1834 25.6743 21.0837ZM25.5741 22.2799C25.7745 22.1304 26.0751 22.0806 26.1252 21.8314C26.1753 21.632 25.9749 21.4825 25.7745 21.5323C25.524 21.5822 25.3738 21.7815 25.3738 22.0307C25.3237 22.1304 25.3738 22.2799 25.5741 22.2799Z" fill="black" stroke="black" stroke-width="0.5"/>
<path d="M21.867 20.7847C21.7167 21.1834 21.7668 21.6818 21.1656 21.7317C20.7148 21.7815 20.2139 21.2333 20.2139 20.8345C20.2139 20.4856 20.815 19.8377 21.1656 19.8377C21.7167 19.8875 21.7668 20.3361 21.867 20.7847ZM21.6165 20.8345C21.4662 20.6352 21.4662 20.3361 21.1656 20.386C20.815 20.4358 20.5645 20.6352 20.5645 20.9342C20.5645 21.1336 20.6647 21.4326 20.9653 21.3329C21.2157 21.2831 21.4662 21.1336 21.6165 20.8345Z" fill="black" stroke="black" stroke-width="0.5"/>
<path d="M17.6094 22.3796C17.7096 21.6818 18.1604 21.3329 18.6613 21.0339C18.9619 20.8345 19.2124 21.0339 19.4127 21.3329C19.6632 21.7317 19.6131 22.0307 19.2625 22.2799C18.9619 22.5291 18.5612 22.6787 18.2606 22.3298C17.96 21.9809 17.8598 22.1304 17.6094 22.3796ZM19.0621 21.6818C19.1122 21.4326 18.9619 21.3329 18.7615 21.3329C18.4109 21.3329 18.4109 21.5822 18.4109 21.7815C18.3608 21.9809 18.4109 22.1803 18.6613 22.1803C18.9619 22.1803 19.012 21.931 19.0621 21.6818Z" fill="black" stroke="black" stroke-width="0.5"/>
<path d="M25.4734 10.6668C24.8222 10.7665 24.2211 11.1154 23.4697 10.7167C23.119 10.5173 22.7183 11.1154 22.2674 10.9659C24.3213 11.2151 26.325 10.9659 28.3789 10.6668C27.7778 10.8662 27.3269 11.3148 26.6757 11.3148C24.8222 11.3646 23.0189 11.4144 21.1654 11.4144C21.0652 11.4144 20.7145 11.564 20.7646 11.2649C20.7646 11.0655 20.7646 10.7167 21.1654 10.7665C21.1654 10.7665 21.7164 11.0157 21.516 10.5173C21.4659 10.4176 22.4177 10.4176 22.5179 10.5671C22.6682 10.8163 22.6682 10.8163 22.8686 10.6668C23.2192 10.3179 23.5699 10.1186 24.0708 10.4674C24.4215 10.7167 25.0226 10.4176 25.4734 10.6668Z" fill="black" stroke="black" stroke-width="0.5"/>
</svg>
